<svg xmlns="http://www.w3.org/2000/svg" viewBox="0 0 750 750" style="enable-background:new 0 0 750 750" xml:space="preserve"><switch><g><path d="M672.4 390.4c5.1 8.8 16.6 14.6 12.9 27.8-.5 1.6 2 4.1 3.2 6.2 2 3.5 3.1 7.3 1.2 10.8-2.2 4-.2 7 .7 10.6 2.8 11.9-2.3 22.9-5.4 34-3.4 11.8-14.1 18.1-22.3 26.1-7.4 7.2-19.5.6-27 8.8-1.2 1.3-5 1.6-6.8.7-6.3-3.3-12.9-1.6-19.3-2.2-8.8-.8-17.8-2.1-26-5.1-13.1-5-26.2-7.3-40.1-5.9-2.8.3-6 .6-8.5-.4-9.4-3.9-19.7 2.9-28.8-2.5-13.4 7.6-27.5-1.5-41.6 1.8-12.7 3-26.6-1.8-39.6 3.5-2.1.9-4.7.5-7.1.5-15.9 0-31.8-2.3-47.8-.8-2.6.2-6.1-.5-8.1-2.1-13.5-11.4-32.5-18.7-31-41.5.1-2-2-4.2-3.2-6.2-2-3.4-3.7-7.1-2.6-10.8 2.8-9.5-4.9-21.1 5.8-29.2.8-.6-.2-3.6-.2-5.5 0-11.7 7.8-23.8 18.2-28.7 3.4-1.6 6.7-3.4 10.4-5.3-1.5-3.9-3-7.5-4.6-11.5-1.9 1.4-3.2 2.1-4.1 3.1-17.5 18.6-36.6 34.3-63 38.7-8.9 1.5-15.3 7.5-19.7 15.2-8.9 15.5-21.7 27.5-34.8 39.3-9.9 8.8-19.9 17.7-29.9 26.4-4.9 4.3-9.3 8.2-2.4 14.5 1.1 1 1.8 4.1 1.1 5.3-3.8 7 1.9 10 5 14.5 4.9 7 7.1 15.4 1.8 22.6-4.1 5.6-3 9.7-1.3 15.4 2.6 8.7 1.2 17.5-6.5 23.2-4.6 3.5-6.9 6.8-6.6 12.7.3 8.1-4.9 13-11.8 16.2-7.3 3.4-14.4 1.5-22 .5-7.4-1-14.4 6.6-23 4.8-7.5-1.6-11.3-9.8-17.2-11.3-6.9-1.8-15.9 1.6-21.6-4-9.8-9.9-21.1-18.4-30.2-28.5-7.4-8.3-8.4-22-9.6-33.2-1.1-9.6 4.5-19.6 4.3-30.6-.2-11.7 17.9-11.9 20.3-24.5.6-3.3 6.7-4.8 11.2-5 6.2-.3 12.2 1.6 18.1 1.9 5 .3 9.2-6.5 15.6-8.5 10.3-3.2 16.8 3.8 25.1 6.9 1.4-3.1 2.6-5.7 3.8-8.3 15.1-33.7 29.8-67.6 45.4-101.1 22-47.4 46-93.8 77.2-136 22.2-30.1 48.1-56.4 80.8-75.2 34.3-19.6 70.7-28.8 110.6-22.3 36.6 5.9 68.7 21.1 97.3 43.9C613.4 215.7 643 261 652.6 318c3.6 21.1 3.1 42.6 1.3 65.5 7 1.4 14.7.3 18.5 6.9zm-485.3 95.3c3.4 1.9 5.3-.9 7.1-2.9 15-16 32.1-29.7 48.3-44.3 6.4-5.7 11.8-12.3 16.3-19.7 8.1-13.3 19.7-21.6 34.9-25 28.7-6.3 49-24.5 60.4-49.8 13.6-30.1 37.3-44.1 66.9-52.2 4.7-1.3 9.4-1.4 14.1-1.3 3 .1 6.3.5 6.5 4 .3 3.7-3 4.4-6 4.4-17.4-.1-32 8-46.5 16.1-9.3 5.2-16.4 12.7-21.9 21.9-8.1 13.6-5.5 27.2 2.4 39 5.8 8.7 17.1 11.7 27 13.8 11.4 2.4 23 2.9 34 8.1 7.5 3.6 16.5 1.6 24.8 3.1 12.4 2.2 24.9 3.8 37.4 5.7 8.3 1.3 17.3 2.3 25.2.4 10.3-2.5 21-2.2 30.4-1.5 16.8 1.4 32.4-3.1 48.6-4.3 4.1-.3 9.3-1.5 12.4-6 4-5.7 9.5-6.6 16.3-5.6 13.9 2 19.2-2.5 20.1-16.1 5.9-91.9-33.3-160.4-111.2-206.1-70.8-41.5-150.4-29.7-209.7 27-31.3 29.9-54.7 65.5-76 102.7-29.6 51.6-53 106.2-76.9 160.5-2.7 6.1-5.2 12.2-8.1 19 7.1 6.8 16.1 5.3 23.2 9.1zm482.8-81.5c-2.3-.3-4.4-2.1-4.3-4.9.2-8.7-6.6-8.6-10.5-5.9-6.5 4.3-16.4-.7-20.9 8.7-1.1 2.2-4.9-1-7.1-2.8-5.6-4.4-9.5-3.2-11.8 3.5-.9 2.6-2.4 7.8-3.4 6.9-6.4-5.6-10 7.3-15.9 1.9-1.7-1.6-5.9-2.5-6.5-1-4.9 10.9-11.7 3.9-18 2.5-1.7-.4-4.6-.1-5.4.9-4.9 6.8-9.4 3.4-14.2 0-1.3-.9-4.9-1.1-5.2-.5-4.6 8.8-9.8 3.9-14.9.9-.8-.5-2-1.1-2.6-.8-9.7 4.8-20.1 1.2-30 3.2-2.3.4-4.2 1.9-6.5.1-5.4-4.5-10.9-7.2-17.7-1.9-2 1.6-4.1-1.3-6-2.6-4.4-3.2-8.9-6-13.6-.4-.5.6-2.3 1.1-2.4 1-7.4-11.7-23.4 2.7-30.7-10.1-1.3-2.2-5.2-1.9-7.7.3-1.6 1.4-3.7 2.2-5.1.6-4.8-5.6-9.5-9.4-16-2.3-.3.3-1 .4-1.3.3-4.9-2-5.8-8.7-11.5-9.9-4.1-.9-9.9 5.4-12.3-3.3-1.3-4.5-5.4-5.6-9-2.7-4.6 3.6-14.1-.2-14.2 10.5-.1 5.7-9.9 9.4-4.5 17.1 1.2 1.6 1.2 4.4-.4 5.2-8.1 4.4-5.6 10.6-5.3 17.8.3 7-2.3 13.8 3.8 19.6 2.2 2.1 2.4 5.1 1.6 8-1.9 6.4.8 10.1 6.7 11.9 2.7.8 4.2 2.4 3.9 5-.4 4.3 1.9 6.1 5.7 6.5 3.1.3 5.2 1.6 6.5 4.6 1.2 2.8 4.1 5.5 6.7 4.1 11-5.8 22.2 4 33-1 3.2-1.5 5.5.3 8 1 7.2 2 14 2.4 20-3.2 1-.9 2.8-2.3 3.5-2 8.4 4 16.7 1.1 25.2 1 5.8-.1 11.7 1.7 17.7-.7 2.7-1.1 5.5-.9 8.2.7 1.6.9 3.6 1.1 5.4 1.8 6.7 2.7 11.5-5.5 16.8-3.9 5.8 1.7 10.7 6.1 17 1.5 2-1.5 4.4-1.6 6.6-.1 6.5 4.5 13.2 4.8 20 .8 2.8-1.6 5.5-1.2 7.9.6 4.1 3.1 7.9 4.7 12.9 1.4 3.2-2.1 6.1-.6 8.6 2.4 3.9 4.9 9.1 6.9 15.2 4.4 2.5-1 4.6-1.3 6.4.9 4.5 5.5 10.3 3.8 15.8 2.5 2.3-.5 4.7-2.2 6.6-.3 6.1 5.9 10.9 3.8 15.5-1.8 2.5-3 5.2-2.9 8.8-1.3 5.1 2.4 9.1.9 11-5.1.5-1.7 2.2-4.3 3.2-4.3 8.6.3 8-7.4 11.7-11.7 4.6-5.4 6.7-10 4-16.5-1.1-2.5-.1-4.7 1.7-6.4 1.4-1.3 3.9-3 2.9-4.4-6.3-9.2.3-20.6-5.6-29.7-1.6-2.4-3.9-4.3-2-7.6 1.8-5.6 1.8-10.1-6-11zm-487.4 90.9c0-2.7-2.1-4.3-4.9-3.1-4.4 1.8-7-1.1-10.1-3.3-2.2-1.5-5.4-4.2-7.6-1.7-6.4 7.2-9.7 2.4-14.7-2.1-9.7-8.8-18.3-7.9-24.5 3-4 7.1-6.6 5.9-11.6 1.6-4.4-3.8-9.9-5.3-15.9-2.6-3.7 1.7-7.3 3.7-5.9 8.2 2.2 7.1-.3 8.8-7.3 9.5-10.5 1.1-12 5.7-5.3 14.4 3 3.8 2.7 5.7-1 9-9.6 8.5-9.5 9.4-2 19.2 1.9 2.5 3.1 4.7 2.2 7.6-1.1 3.5-3.9 6.7-1.1 10.6 2.6 3.6 5.7 6.5 9.9 7.8 7 2.2 11.6 5.5 14.1 13.4 2.8 8.7 10.7 11.9 19.8 8.6 7-2.5 10.4-3.4 13.5 5.2 3.1 8.6 11.9 9.7 21.6 3.8 5.1-3.1 8.3-4.9 14.9-1.1 9.6 5.7 20.2-2.2 19.6-13.8-.3-6.4 0-9.8 7.2-12.4 7.8-2.8 9.5-11.8 3.8-20.7-4-6.3-3.4-9.5 1.6-14.4 6.3-6.1 5.4-14.3-.7-19.8-3-2.7-9.5-2.1-9.2-7.6.2-3.4 3.3-6.6 5.8-11.3-5.4-2-12.2 0-12.2-8z" style="fill:#3b3330"/><path d="M645.8 373.7c-.9 13.6-6.2 18.1-20.1 16.1-6.8-1-12.3-.1-16.3 5.6-3.1 4.4-8.3 5.7-12.4 6-16.2 1.2-31.8 5.7-48.6 4.3-9.5-.8-20.2-1-30.4 1.5-7.9 1.9-16.9.9-25.2-.4-12.5-1.9-25-3.6-37.4-5.7-8.3-1.4-17.3.5-24.8-3.1-10.9-5.2-22.6-5.7-34-8.1-9.8-2.1-21.2-5.1-27-13.8-7.9-11.8-10.5-25.4-2.4-39 5.5-9.2 12.6-16.8 21.9-21.9 14.5-8 29.1-16.2 46.5-16.1 3 0 6.2-.7 6-4.4-.2-3.5-3.6-4-6.5-4-4.8-.1-9.5 0-14.1 1.3-29.5 8.1-53.2 22-66.9 52.2-11.4 25.3-31.7 43.5-60.4 49.8-15.2 3.3-26.9 11.7-34.9 25-4.5 7.4-9.9 13.9-16.3 19.7-16.3 14.6-33.3 28.3-48.3 44.3-1.8 2-3.7 4.8-7.1 2.9-7.1-3.9-16.1-2.3-23.1-8.9 2.9-6.8 5.4-12.9 8.1-19 23.9-54.3 47.3-108.9 76.9-160.5 21.4-37.2 44.7-72.8 76-102.7 59.3-56.7 139-68.5 209.7-27 77.9 45.5 117.1 114 111.1 205.9z" style="fill:#ed4029"/><path d="M680.2 456.8c-1.8 1.7-2.8 3.8-1.7 6.4 2.7 6.5.7 11.1-4 16.5-3.6 4.2-3 12-11.7 11.7-1 0-2.7 2.6-3.2 4.3-1.9 5.9-5.9 7.4-11 5.1-3.6-1.7-6.3-1.7-8.8 1.3-4.7 5.6-9.5 7.7-15.5 1.8-1.9-1.9-4.3-.3-6.6.3-5.5 1.3-11.2 3-15.8-2.5-1.7-2.1-3.9-1.9-6.4-.9-6.1 2.5-11.2.6-15.2-4.4-2.4-3-5.4-4.5-8.6-2.4-5 3.4-8.8 1.7-12.9-1.4-2.4-1.9-5.1-2.3-7.9-.6-6.8 4-13.5 3.6-20-.8-2.2-1.5-4.6-1.4-6.6.1-6.3 4.6-11.2.2-17-1.5-5.3-1.6-10.1 6.6-16.8 3.9-1.7-.7-3.8-.8-5.4-1.8-2.7-1.6-5.4-1.9-8.2-.7-5.9 2.5-11.8.6-17.7.7-8.5.2-16.8 3.1-25.2-1-.7-.3-2.5 1.1-3.5 2-6 5.5-12.8 5.2-20 3.2-2.6-.7-4.8-2.5-8-1-10.7 5-22-4.8-33 1-2.5 1.3-5.4-1.3-6.7-4.1-1.3-3-3.4-4.2-6.5-4.6-3.7-.4-6.1-2.2-5.7-6.5.2-2.7-1.2-4.2-3.9-5-5.9-1.8-8.6-5.5-6.7-11.9.9-2.9.7-5.8-1.6-8-6.1-5.8-3.5-12.6-3.8-19.6-.3-7.2-2.8-13.4 5.3-17.8 1.6-.8 1.5-3.6.4-5.2-5.5-7.7 4.4-11.4 4.5-17.1.1-10.7 9.7-6.9 14.2-10.5 3.6-2.9 7.8-1.9 9 2.7 2.4 8.7 8.2 2.4 12.3 3.3 5.6 1.2 6.6 7.8 11.5 9.9.4.1 1.1 0 1.3-.3 6.5-7.1 11.2-3.3 16 2.3 1.3 1.6 3.5.8 5.1-.6 2.5-2.3 6.4-2.6 7.7-.3 7.3 12.9 23.3-1.5 30.7 10.1.1.2 1.9-.4 2.4-1 4.7-5.6 9.2-2.8 13.6.4 1.9 1.4 4 4.2 6 2.6 6.8-5.2 12.2-2.6 17.7 1.9 2.2 1.9 4.2.4 6.5-.1 9.9-1.9 20.4 1.7 30-3.2.6-.3 1.8.4 2.6.8 5.2 3 10.3 7.9 14.9-.9.3-.6 3.9-.4 5.2.5 4.9 3.4 9.3 6.7 14.2 0 .8-1.1 3.7-1.3 5.4-.9 6.3 1.4 13.1 8.5 18-2.5.7-1.5 4.8-.5 6.5 1 5.9 5.4 9.5-7.5 15.9-1.9 1.1.9 2.6-4.3 3.4-6.9 2.3-6.7 6.2-7.9 11.8-3.5 2.2 1.7 6 5 7.1 2.8 4.5-9.5 14.4-4.4 20.9-8.7 3.9-2.6 10.7-2.8 10.5 5.9-.1 2.8 2 4.6 4.3 4.9 7.8.9 7.8 5.4 5.7 11.1-1.9 3.3.4 5.2 2 7.6 5.9 9-.8 20.5 5.6 29.7 1.2 1.3-1.3 3-2.6 4.3zm-482 65.4c-3-2.7-9.5-2.1-9.2-7.6.2-3.4 3.3-6.6 5.8-11.3-5.5-2.2-12.3-.2-12.3-8.2 0-2.7-2.1-4.3-4.9-3.1-4.4 1.8-7-1.1-10.1-3.3-2.2-1.5-5.4-4.2-7.6-1.7-6.4 7.2-9.7 2.4-14.7-2.1-9.7-8.8-18.3-7.9-24.5 3-4 7.1-6.6 5.9-11.6 1.6-4.4-3.8-9.9-5.3-15.9-2.6-3.7 1.7-7.3 3.7-5.9 8.2 2.2 7.1-.3 8.8-7.3 9.5-10.5 1.1-12 5.7-5.3 14.4 3 3.8 2.7 5.7-1 9-9.6 8.5-9.5 9.4-2 19.2 1.9 2.5 3.1 4.7 2.2 7.6-1.1 3.5-3.9 6.7-1.1 10.6 2.6 3.6 5.7 6.5 9.9 7.8 7 2.2 11.6 5.5 14.1 13.4 2.8 8.7 10.7 11.9 19.8 8.6 7-2.5 10.4-3.4 13.5 5.2 3.1 8.6 11.9 9.7 21.6 3.8 5.1-3.1 8.3-4.9 14.9-1.1 9.6 5.7 20.2-2.2 19.6-13.8-.3-6.4 0-9.8 7.2-12.4 7.8-2.8 9.5-11.8 3.8-20.7-4-6.3-3.4-9.5 1.6-14.4 6.3-6 5.5-14.1-.6-19.6z" style="fill:#eeeeed"/></g></switch></svg>
